<?xml version="1.0" encoding="utf-8"?>
<!-- Generator: Adobe Illustrator 25.1.0, SVG Export Plug-In . SVG Version: 6.00 Build 0)  -->
<svg version="1.1" id="Layer_1" xmlns="http://www.w3.org/2000/svg" xmlns:xlink="http://www.w3.org/1999/xlink" x="0px" y="0px"
	 viewBox="0 0 300 300" style="enable-background:new 0 0 300 300;" xml:space="preserve">
<style type="text/css">
	.st0{fill:none;}
	.st1{fill:#BD95C6;}
	.st2{fill:#F400A3;}
	.st3{font-family:'Gabriola';}
	.st4{font-size:36px;}
	.st5{fill:#C729ED;}
</style>
<line class="st0" x1="137.1" y1="128.61" x2="179.18" y2="86.53"/>
<line class="st0" x1="130.32" y1="87.93" x2="171.95" y2="129.56"/>
<path class="st0" d="M175.75,106.58c0-0.11,0-0.23,0-0.34"/>
<path class="st0" d="M138.46,117.45c3.1,0.38,6.16-0.75,9.06-1.92c11.09-4.47,21.84-9.78,32.13-15.85
	c3.45-2.04,7.04-4.22,11.04-4.36"/>
<path class="st0" d="M183.76,122.7c7.66-3.31,16.24-4.01,24.55-3.28s16.43,2.81,24.51,4.88"/>
<path class="st0" d="M112.02,112.69c7.6-0.01,15.2-0.03,22.81-0.04c1.83,0,3.68-0.01,5.48,0.36c1.77,0.36,3.45,1.06,5.17,1.63
	c1.97,0.65,4.05,1.13,6.11,0.87c2.06-0.26,4.1-1.38,5.03-3.24"/>
<circle class="st0" cx="141.5" cy="109.5" r="12.5"/>
<circle class="st0" cx="194.5" cy="131.5" r="12.5"/>
<circle class="st1" cx="154" cy="131" r="12"/>
<rect x="92.59" y="114.25" class="st0" width="131.41" height="37.75"/>
<text transform="matrix(1 0 0 1 92.5933 138.125)" class="st2 st3 st4">Affirmation</text>
<circle class="st5" cx="169" cy="114" r="4"/>
<circle class="st5" cx="193.5" cy="110.5" r="2.5"/>
<circle class="st5" cx="178" cy="104" r="4"/>
<circle class="st5" cx="153.5" cy="104.5" r="2.5"/>
<circle class="st5" cx="145" cy="97" r="3"/>
<circle class="st5" cx="129" cy="103" r="4"/>
<circle class="st5" cx="114" cy="110" r="2"/>
<circle class="st5" cx="122" cy="160" r="3"/>
<circle class="st5" cx="137" cy="160" r="3"/>
<circle class="st5" cx="156.5" cy="162.5" r="3.5"/>
<circle class="st5" cx="150.49" cy="150.31" r="2.5"/>
<circle class="st5" cx="179.5" cy="155.5" r="2.5"/>
<circle class="st5" cx="169" cy="151" r="4"/>
<circle class="st5" cx="100.5" cy="157.5" r="3.5"/>
<circle class="st5" cx="143.5" cy="112.5" r="3.5"/>
<circle class="st5" cx="193" cy="150" r="4"/>
<circle class="st5" cx="150.49" cy="150.31" r="2"/>
<circle class="st5" cx="133" cy="147" r="2"/>
<circle class="st5" cx="177" cy="143" r="2"/>
</svg>
